<?xml version='1.0' encoding='UTF-8'?>
<svg width="98.4mm" height="98.4mm" version="1.1" viewBox="0 0 98.4 98.4" xmlns="http://www.w3.org/2000/svg"><path d="M9.6,9.6H12V12H9.6zM12,9.6H14.4V12H12zM14.4,9.6H16.8V12H14.4zM16.8,9.6H19.2V12H16.8zM19.2,9.6H21.6V12H19.2zM21.6,9.6H24V12H21.6zM24,9.6H26.4V12H24zM31.2,9.6H33.6V12H31.2zM36,9.6H38.4V12H36zM52.8,9.6H55.2V12H52.8zM55.2,9.6H57.6V12H55.2zM62.4,9.6H64.8V12H62.4zM67.2,9.6H69.6V12H67.2zM72,9.6H74.4V12H72zM74.4,9.6H76.8V12H74.4zM76.8,9.6H79.2V12H76.8zM79.2,9.6H81.6V12H79.2zM81.6,9.6H84V12H81.6zM84,9.6H86.4V12H84zM86.4,9.6H88.8V12H86.4zM9.6,12H12V14.4H9.6zM24,12H26.4V14.4H24zM28.8,12H31.2V14.4H28.8zM31.2,12H33.6V14.4H31.2zM38.4,12H40.8V14.4H38.4zM40.8,12H43.2V14.4H40.8zM45.6,12H48V14.4H45.6zM52.8,12H55.2V14.4H52.8zM55.2,12H57.6V14.4H55.2zM60,12H62.4V14.4H60zM62.4,12H64.8V14.4H62.4zM72,12H74.4V14.4H72zM86.4,12H88.8V14.4H86.4zM9.6,14.4H12V16.8H9.6zM14.4,14.4H16.8V16.8H14.4zM16.8,14.4H19.2V16.8H16.8zM19.2,14.4H21.6V16.8H19.2zM24,14.4H26.4V16.8H24zM28.8,14.4H31.2V16.8H28.8zM33.6,14.4H36V16.8H33.6zM40.8,14.4H43.2V16.8H40.8zM45.6,14.4H48V16.8H45.6zM52.8,14.4H55.2V16.8H52.8zM55.2,14.4H57.6V16.8H55.2zM57.6,14.4H60V16.8H57.6zM60,14.4H62.4V16.8H60zM62.4,14.4H64.8V16.8H62.4zM67.2,14.4H69.6V16.8H67.2zM72,14.4H74.4V16.8H72zM76.8,14.4H79.2V16.8H76.8zM79.2,14.4H81.6V16.8H79.2zM81.6,14.4H84V16.8H81.6zM86.4,14.4H88.8V16.8H86.4zM9.6,16.8H12V19.2H9.6zM14.4,16.8H16.8V19.2H14.4zM16.8,16.8H19.2V19.2H16.8zM19.2,16.8H21.6V19.2H19.2zM24,16.8H26.4V19.2H24zM28.8,16.8H31.2V19.2H28.8zM31.2,16.8H33.6V19.2H31.2zM40.8,16.8H43.2V19.2H40.8zM52.8,16.8H55.2V19.2H52.8zM55.2,16.8H57.6V19.2H55.2zM57.6,16.8H60V19.2H57.6zM60,16.8H62.4V19.2H60zM62.4,16.8H64.8V19.2H62.4zM64.8,16.8H67.2V19.2H64.8zM72,16.8H74.4V19.2H72zM76.8,16.8H79.2V19.2H76.8zM79.2,16.8H81.6V19.2H79.2zM81.6,16.8H84V19.2H81.6zM86.4,16.8H88.8V19.2H86.4zM9.6,19.2H12V21.6H9.6zM14.4,19.2H16.8V21.6H14.4zM16.8,19.2H19.2V21.6H16.8zM19.2,19.2H21.6V21.6H19.2zM24,19.2H26.4V21.6H24zM28.8,19.2H31.2V21.6H28.8zM38.4,19.2H40.8V21.6H38.4zM40.8,19.2H43.2V21.6H40.8zM43.2,19.2H45.6V21.6H43.2zM62.4,19.2H64.8V21.6H62.4zM64.8,19.2H67.2V21.6H64.8zM72,19.2H74.4V21.6H72zM76.8,19.2H79.2V21.6H76.8zM79.2,19.2H81.6V21.6H79.2zM81.6,19.2H84V21.6H81.6zM86.4,19.2H88.8V21.6H86.4zM9.6,21.6H12V24H9.6zM24,21.6H26.4V24H24zM28.8,21.6H31.2V24H28.8zM31.2,21.6H33.6V24H31.2zM38.4,21.6H40.8V24H38.4zM40.8,21.6H43.2V24H40.8zM43.2,21.6H45.6V24H43.2zM48,21.6H50.4V24H48zM52.8,21.6H55.2V24H52.8zM55.2,21.6H57.6V24H55.2zM64.8,21.6H67.2V24H64.8zM72,21.6H74.4V24H72zM86.4,21.6H88.8V24H86.4zM9.6,24H12V26.4H9.6zM12,24H14.4V26.4H12zM14.4,24H16.8V26.4H14.4zM16.8,24H19.2V26.4H16.8zM19.2,24H21.6V26.4H19.2zM21.6,24H24V26.4H21.6zM24,24H26.4V26.4H24zM28.8,24H31.2V26.4H28.8zM33.6,24H36V26.4H33.6zM38.4,24H40.8V26.4H38.4zM43.2,24H45.6V26.4H43.2zM48,24H50.4V26.4H48zM52.8,24H55.2V26.4H52.8zM57.6,24H60V26.4H57.6zM62.4,24H64.8V26.4H62.4zM67.2,24H69.6V26.4H67.2zM72,24H74.4V26.4H72zM74.4,24H76.8V26.4H74.4zM76.8,24H79.2V26.4H76.8zM79.2,24H81.6V26.4H79.2zM81.6,24H84V26.4H81.6zM84,24H86.4V26.4H84zM86.4,24H88.8V26.4H86.4zM40.8,26.4H43.2V28.8H40.8zM43.2,26.4H45.6V28.8H43.2zM45.6,26.4H48V28.8H45.6zM50.4,26.4H52.8V28.8H50.4zM57.6,26.4H60V28.8H57.6zM62.4,26.4H64.8V28.8H62.4zM64.8,26.4H67.2V28.8H64.8zM67.2,26.4H69.6V28.8H67.2zM14.4,28.8H16.8V31.2H14.4zM21.6,28.8H24V31.2H21.6zM24,28.8H26.4V31.2H24zM26.4,28.8H28.8V31.2H26.4zM28.8,28.8H31.2V31.2H28.8zM31.2,28.8H33.6V31.2H31.2zM40.8,28.8H43.2V31.2H40.8zM43.2,28.8H45.6V31.2H43.2zM45.6,28.8H48V31.2H45.6zM48,28.8H50.4V31.2H48zM55.2,28.8H57.6V31.2H55.2zM57.6,28.8H60V31.2H57.6zM62.4,28.8H64.8V31.2H62.4zM67.2,28.8H69.6V31.2H67.2zM69.6,28.8H72V31.2H69.6zM74.4,28.8H76.8V31.2H74.4zM76.8,28.8H79.2V31.2H76.8zM79.2,28.8H81.6V31.2H79.2zM81.6,28.8H84V31.2H81.6zM84,28.8H86.4V31.2H84zM12,31.2H14.4V33.6H12zM14.4,31.2H16.8V33.6H14.4zM19.2,31.2H21.6V33.6H19.2zM21.6,31.2H24V33.6H21.6zM33.6,31.2H36V33.6H33.6zM38.4,31.2H40.8V33.6H38.4zM43.2,31.2H45.6V33.6H43.2zM50.4,31.2H52.8V33.6H50.4zM57.6,31.2H60V33.6H57.6zM64.8,31.2H67.2V33.6H64.8zM67.2,31.2H69.6V33.6H67.2zM69.6,31.2H72V33.6H69.6zM72,31.2H74.4V33.6H72zM74.4,31.2H76.8V33.6H74.4zM79.2,31.2H81.6V33.6H79.2zM81.6,31.2H84V33.6H81.6zM86.4,31.2H88.8V33.6H86.4zM9.6,33.6H12V36H9.6zM19.2,33.6H21.6V36H19.2zM24,33.6H26.4V36H24zM26.4,33.6H28.8V36H26.4zM31.2,33.6H33.6V36H31.2zM33.6,33.6H36V36H33.6zM40.8,33.6H43.2V36H40.8zM43.2,33.6H45.6V36H43.2zM45.6,33.6H48V36H45.6zM48,33.6H50.4V36H48zM50.4,33.6H52.8V36H50.4zM52.8,33.6H55.2V36H52.8zM55.2,33.6H57.6V36H55.2zM60,33.6H62.4V36H60zM62.4,33.6H64.8V36H62.4zM64.8,33.6H67.2V36H64.8zM69.6,33.6H72V36H69.6zM74.4,33.6H76.8V36H74.4zM76.8,33.6H79.2V36H76.8zM81.6,33.6H84V36H81.6zM86.4,33.6H88.8V36H86.4zM9.6,36H12V38.4H9.6zM14.4,36H16.8V38.4H14.4zM19.2,36H21.6V38.4H19.2zM33.6,36H36V38.4H33.6zM36,36H38.4V38.4H36zM40.8,36H43.2V38.4H40.8zM43.2,36H45.6V38.4H43.2zM45.6,36H48V38.4H45.6zM50.4,36H52.8V38.4H50.4zM55.2,36H57.6V38.4H55.2zM62.4,36H64.8V38.4H62.4zM64.8,36H67.2V38.4H64.8zM69.6,36H72V38.4H69.6zM74.4,36H76.8V38.4H74.4zM79.2,36H81.6V38.4H79.2zM84,36H86.4V38.4H84zM12,38.4H14.4V40.8H12zM21.6,38.4H24V40.8H21.6zM24,38.4H26.4V40.8H24zM26.4,38.4H28.8V40.8H26.4zM28.8,38.4H31.2V40.8H28.8zM31.2,38.4H33.6V40.8H31.2zM43.2,38.4H45.6V40.8H43.2zM45.6,38.4H48V40.8H45.6zM55.2,38.4H57.6V40.8H55.2zM60,38.4H62.4V40.8H60zM62.4,38.4H64.8V40.8H62.4zM67.2,38.4H69.6V40.8H67.2zM72,38.4H74.4V40.8H72zM74.4,38.4H76.8V40.8H74.4zM76.8,38.4H79.2V40.8H76.8zM79.2,38.4H81.6V40.8H79.2zM84,38.4H86.4V40.8H84zM12,40.8H14.4V43.2H12zM14.4,40.8H16.8V43.2H14.4zM16.8,40.8H19.2V43.2H16.8zM19.2,40.8H21.6V43.2H19.2zM21.6,40.8H24V43.2H21.6zM26.4,40.8H28.8V43.2H26.4zM28.8,40.8H31.2V43.2H28.8zM38.4,40.8H40.8V43.2H38.4zM40.8,40.8H43.2V43.2H40.8zM43.2,40.8H45.6V43.2H43.2zM45.6,40.8H48V43.2H45.6zM50.4,40.8H52.8V43.2H50.4zM52.8,40.8H55.2V43.2H52.8zM55.2,40.8H57.6V43.2H55.2zM60,40.8H62.4V43.2H60zM62.4,40.8H64.8V43.2H62.4zM64.8,40.8H67.2V43.2H64.8zM72,40.8H74.4V43.2H72zM79.2,40.8H81.6V43.2H79.2zM81.6,40.8H84V43.2H81.6zM86.4,40.8H88.8V43.2H86.4zM9.6,43.2H12V45.6H9.6zM12,43.2H14.4V45.6H12zM24,43.2H26.4V45.6H24zM26.4,43.2H28.8V45.6H26.4zM36,43.2H38.4V45.6H36zM38.4,43.2H40.8V45.6H38.4zM43.2,43.2H45.6V45.6H43.2zM45.6,43.2H48V45.6H45.6zM48,43.2H50.4V45.6H48zM50.4,43.2H52.8V45.6H50.4zM52.8,43.2H55.2V45.6H52.8zM57.6,43.2H60V45.6H57.6zM64.8,43.2H67.2V45.6H64.8zM72,43.2H74.4V45.6H72zM86.4,43.2H88.8V45.6H86.4zM9.6,45.6H12V48H9.6zM14.4,45.6H16.8V48H14.4zM19.2,45.6H21.6V48H19.2zM21.6,45.6H24V48H21.6zM33.6,45.6H36V48H33.6zM36,45.6H38.4V48H36zM38.4,45.6H40.8V48H38.4zM40.8,45.6H43.2V48H40.8zM50.4,45.6H52.8V48H50.4zM52.8,45.6H55.2V48H52.8zM55.2,45.6H57.6V48H55.2zM62.4,45.6H64.8V48H62.4zM64.8,45.6H67.2V48H64.8zM67.2,45.6H69.6V48H67.2zM74.4,45.6H76.8V48H74.4zM76.8,45.6H79.2V48H76.8zM79.2,45.6H81.6V48H79.2zM84,45.6H86.4V48H84zM14.4,48H16.8V50.4H14.4zM16.8,48H19.2V50.4H16.8zM21.6,48H24V50.4H21.6zM24,48H26.4V50.4H24zM28.8,48H31.2V50.4H28.8zM31.2,48H33.6V50.4H31.2zM36,48H38.4V50.4H36zM45.6,48H48V50.4H45.6zM52.8,48H55.2V50.4H52.8zM62.4,48H64.8V50.4H62.4zM72,48H74.4V50.4H72zM79.2,48H81.6V50.4H79.2zM14.4,50.4H16.8V52.8H14.4zM19.2,50.4H21.6V52.8H19.2zM21.6,50.4H24V52.8H21.6zM33.6,50.4H36V52.8H33.6zM43.2,50.4H45.6V52.8H43.2zM48,50.4H50.4V52.8H48zM57.6,50.4H60V52.8H57.6zM60,50.4H62.4V52.8H60zM64.8,50.4H67.2V52.8H64.8zM69.6,50.4H72V52.8H69.6zM72,50.4H74.4V52.8H72zM74.4,50.4H76.8V52.8H74.4zM81.6,50.4H84V52.8H81.6zM86.4,50.4H88.8V52.8H86.4zM9.6,52.8H12V55.2H9.6zM12,52.8H14.4V55.2H12zM24,52.8H26.4V55.2H24zM28.8,52.8H31.2V55.2H28.8zM36,52.8H38.4V55.2H36zM45.6,52.8H48V55.2H45.6zM50.4,52.8H52.8V55.2H50.4zM57.6,52.8H60V55.2H57.6zM60,52.8H62.4V55.2H60zM64.8,52.8H67.2V55.2H64.8zM76.8,52.8H79.2V55.2H76.8zM79.2,52.8H81.6V55.2H79.2zM81.6,52.8H84V55.2H81.6zM86.4,52.8H88.8V55.2H86.4zM9.6,55.2H12V57.6H9.6zM12,55.2H14.4V57.6H12zM14.4,55.2H16.8V57.6H14.4zM19.2,55.2H21.6V57.6H19.2zM21.6,55.2H24V57.6H21.6zM26.4,55.2H28.8V57.6H26.4zM28.8,55.2H31.2V57.6H28.8zM33.6,55.2H36V57.6H33.6zM36,55.2H38.4V57.6H36zM40.8,55.2H43.2V57.6H40.8zM43.2,55.2H45.6V57.6H43.2zM45.6,55.2H48V57.6H45.6zM57.6,55.2H60V57.6H57.6zM62.4,55.2H64.8V57.6H62.4zM64.8,55.2H67.2V57.6H64.8zM72,55.2H74.4V57.6H72zM79.2,55.2H81.6V57.6H79.2zM84,55.2H86.4V57.6H84zM86.4,55.2H88.8V57.6H86.4zM9.6,57.6H12V60H9.6zM14.4,57.6H16.8V60H14.4zM16.8,57.6H19.2V60H16.8zM19.2,57.6H21.6V60H19.2zM24,57.6H26.4V60H24zM26.4,57.6H28.8V60H26.4zM33.6,57.6H36V60H33.6zM36,57.6H38.4V60H36zM40.8,57.6H43.2V60H40.8zM45.6,57.6H48V60H45.6zM52.8,57.6H55.2V60H52.8zM55.2,57.6H57.6V60H55.2zM64.8,57.6H67.2V60H64.8zM74.4,57.6H76.8V60H74.4zM84,57.6H86.4V60H84zM86.4,57.6H88.8V60H86.4zM28.8,60H31.2V62.4H28.8zM33.6,60H36V62.4H33.6zM36,60H38.4V62.4H36zM38.4,60H40.8V62.4H38.4zM40.8,60H43.2V62.4H40.8zM43.2,60H45.6V62.4H43.2zM45.6,60H48V62.4H45.6zM50.4,60H52.8V62.4H50.4zM52.8,60H55.2V62.4H52.8zM55.2,60H57.6V62.4H55.2zM57.6,60H60V62.4H57.6zM60,60H62.4V62.4H60zM62.4,60H64.8V62.4H62.4zM74.4,60H76.8V62.4H74.4zM79.2,60H81.6V62.4H79.2zM81.6,60H84V62.4H81.6zM86.4,60H88.8V62.4H86.4zM9.6,62.4H12V64.8H9.6zM12,62.4H14.4V64.8H12zM14.4,62.4H16.8V64.8H14.4zM16.8,62.4H19.2V64.8H16.8zM21.6,62.4H24V64.8H21.6zM24,62.4H26.4V64.8H24zM26.4,62.4H28.8V64.8H26.4zM28.8,62.4H31.2V64.8H28.8zM33.6,62.4H36V64.8H33.6zM36,62.4H38.4V64.8H36zM43.2,62.4H45.6V64.8H43.2zM48,62.4H50.4V64.8H48zM50.4,62.4H52.8V64.8H50.4zM64.8,62.4H67.2V64.8H64.8zM69.6,62.4H72V64.8H69.6zM72,62.4H74.4V64.8H72zM74.4,62.4H76.8V64.8H74.4zM84,62.4H86.4V64.8H84zM86.4,62.4H88.8V64.8H86.4zM19.2,64.8H21.6V67.2H19.2zM21.6,64.8H24V67.2H21.6zM26.4,64.8H28.8V67.2H26.4zM28.8,64.8H31.2V67.2H28.8zM33.6,64.8H36V67.2H33.6zM48,64.8H50.4V67.2H48zM50.4,64.8H52.8V67.2H50.4zM52.8,64.8H55.2V67.2H52.8zM55.2,64.8H57.6V67.2H55.2zM79.2,64.8H81.6V67.2H79.2zM84,64.8H86.4V67.2H84zM9.6,67.2H12V69.6H9.6zM12,67.2H14.4V69.6H12zM16.8,67.2H19.2V69.6H16.8zM19.2,67.2H21.6V69.6H19.2zM24,67.2H26.4V69.6H24zM33.6,67.2H36V69.6H33.6zM36,67.2H38.4V69.6H36zM38.4,67.2H40.8V69.6H38.4zM43.2,67.2H45.6V69.6H43.2zM48,67.2H50.4V69.6H48zM50.4,67.2H52.8V69.6H50.4zM52.8,67.2H55.2V69.6H52.8zM57.6,67.2H60V69.6H57.6zM64.8,67.2H67.2V69.6H64.8zM67.2,67.2H69.6V69.6H67.2zM69.6,67.2H72V69.6H69.6zM72,67.2H74.4V69.6H72zM74.4,67.2H76.8V69.6H74.4zM76.8,67.2H79.2V69.6H76.8zM86.4,67.2H88.8V69.6H86.4zM28.8,69.6H31.2V72H28.8zM31.2,69.6H33.6V72H31.2zM33.6,69.6H36V72H33.6zM36,69.6H38.4V72H36zM38.4,69.6H40.8V72H38.4zM43.2,69.6H45.6V72H43.2zM45.6,69.6H48V72H45.6zM50.4,69.6H52.8V72H50.4zM55.2,69.6H57.6V72H55.2zM57.6,69.6H60V72H57.6zM60,69.6H62.4V72H60zM67.2,69.6H69.6V72H67.2zM76.8,69.6H79.2V72H76.8zM79.2,69.6H81.6V72H79.2zM81.6,69.6H84V72H81.6zM84,69.6H86.4V72H84zM86.4,69.6H88.8V72H86.4zM9.6,72H12V74.4H9.6zM12,72H14.4V74.4H12zM14.4,72H16.8V74.4H14.4zM16.8,72H19.2V74.4H16.8zM19.2,72H21.6V74.4H19.2zM21.6,72H24V74.4H21.6zM24,72H26.4V74.4H24zM28.8,72H31.2V74.4H28.8zM31.2,72H33.6V74.4H31.2zM33.6,72H36V74.4H33.6zM36,72H38.4V74.4H36zM40.8,72H43.2V74.4H40.8zM43.2,72H45.6V74.4H43.2zM45.6,72H48V74.4H45.6zM48,72H50.4V74.4H48zM50.4,72H52.8V74.4H50.4zM55.2,72H57.6V74.4H55.2zM57.6,72H60V74.4H57.6zM67.2,72H69.6V74.4H67.2zM72,72H74.4V74.4H72zM76.8,72H79.2V74.4H76.8zM79.2,72H81.6V74.4H79.2zM86.4,72H88.8V74.4H86.4zM9.6,74.4H12V76.8H9.6zM24,74.4H26.4V76.8H24zM28.8,74.4H31.2V76.8H28.8zM33.6,74.4H36V76.8H33.6zM36,74.4H38.4V76.8H36zM38.4,74.4H40.8V76.8H38.4zM40.8,74.4H43.2V76.8H40.8zM45.6,74.4H48V76.8H45.6zM52.8,74.4H55.2V76.8H52.8zM55.2,74.4H57.6V76.8H55.2zM60,74.4H62.4V76.8H60zM64.8,74.4H67.2V76.8H64.8zM67.2,74.4H69.6V76.8H67.2zM76.8,74.4H79.2V76.8H76.8zM79.2,74.4H81.6V76.8H79.2zM84,74.4H86.4V76.8H84zM86.4,74.4H88.8V76.8H86.4zM9.6,76.8H12V79.2H9.6zM14.4,76.8H16.8V79.2H14.4zM16.8,76.8H19.2V79.2H16.8zM19.2,76.8H21.6V79.2H19.2zM24,76.8H26.4V79.2H24zM31.2,76.8H33.6V79.2H31.2zM38.4,76.8H40.8V79.2H38.4zM40.8,76.8H43.2V79.2H40.8zM48,76.8H50.4V79.2H48zM57.6,76.8H60V79.2H57.6zM60,76.8H62.4V79.2H60zM64.8,76.8H67.2V79.2H64.8zM67.2,76.8H69.6V79.2H67.2zM69.6,76.8H72V79.2H69.6zM72,76.8H74.4V79.2H72zM74.4,76.8H76.8V79.2H74.4zM76.8,76.8H79.2V79.2H76.8zM79.2,76.8H81.6V79.2H79.2zM9.6,79.2H12V81.6H9.6zM14.4,79.2H16.8V81.6H14.4zM16.8,79.2H19.2V81.6H16.8zM19.2,79.2H21.6V81.6H19.2zM24,79.2H26.4V81.6H24zM31.2,79.2H33.6V81.6H31.2zM33.6,79.2H36V81.6H33.6zM36,79.2H38.4V81.6H36zM40.8,79.2H43.2V81.6H40.8zM43.2,79.2H45.6V81.6H43.2zM45.6,79.2H48V81.6H45.6zM50.4,79.2H52.8V81.6H50.4zM52.8,79.2H55.2V81.6H52.8zM55.2,79.2H57.6V81.6H55.2zM60,79.2H62.4V81.6H60zM64.8,79.2H67.2V81.6H64.8zM69.6,79.2H72V81.6H69.6zM74.4,79.2H76.8V81.6H74.4zM76.8,79.2H79.2V81.6H76.8zM79.2,79.2H81.6V81.6H79.2zM81.6,79.2H84V81.6H81.6zM84,79.2H86.4V81.6H84zM9.6,81.6H12V84H9.6zM14.4,81.6H16.8V84H14.4zM16.8,81.6H19.2V84H16.8zM19.2,81.6H21.6V84H19.2zM24,81.6H26.4V84H24zM28.8,81.6H31.2V84H28.8zM31.2,81.6H33.6V84H31.2zM36,81.6H38.4V84H36zM38.4,81.6H40.8V84H38.4zM43.2,81.6H45.6V84H43.2zM45.6,81.6H48V84H45.6zM48,81.6H50.4V84H48zM50.4,81.6H52.8V84H50.4zM52.8,81.6H55.2V84H52.8zM55.2,81.6H57.6V84H55.2zM57.6,81.6H60V84H57.6zM62.4,81.6H64.8V84H62.4zM67.2,81.6H69.6V84H67.2zM76.8,81.6H79.2V84H76.8zM81.6,81.6H84V84H81.6zM84,81.6H86.4V84H84zM86.4,81.6H88.8V84H86.4zM9.6,84H12V86.4H9.6zM24,84H26.4V86.4H24zM36,84H38.4V86.4H36zM52.8,84H55.2V86.4H52.8zM55.2,84H57.6V86.4H55.2zM60,84H62.4V86.4H60zM67.2,84H69.6V86.4H67.2zM69.6,84H72V86.4H69.6zM72,84H74.4V86.4H72zM9.6,86.4H12V88.8H9.6zM12,86.4H14.4V88.8H12zM14.4,86.4H16.8V88.8H14.4zM16.8,86.4H19.2V88.8H16.8zM19.2,86.4H21.6V88.8H19.2zM21.6,86.4H24V88.8H21.6zM24,86.4H26.4V88.8H24zM31.2,86.4H33.6V88.8H31.2zM33.6,86.4H36V88.8H33.6zM36,86.4H38.4V88.8H36zM38.4,86.4H40.8V88.8H38.4zM40.8,86.4H43.2V88.8H40.8zM43.2,86.4H45.6V88.8H43.2zM50.4,86.4H52.8V88.8H50.4zM52.8,86.4H55.2V88.8H52.8zM60,86.4H62.4V88.8H60zM67.2,86.4H69.6V88.8H67.2zM72,86.4H74.4V88.8H72zM76.8,86.4H79.2V88.8H76.8zM79.2,86.4H81.6V88.8H79.2zM86.4,86.4H88.8V88.8H86.4z" id="qr-path" fill="#000000" fill-opacity="1" fill-rule="nonzero" stroke="none"/></svg>