<svg width="1810" height="3840" viewBox="0 0 1810 3840" fill="none" xmlns="http://www.w3.org/2000/svg">
  <defs>
    <linearGradient id="ig" x1="0" y1="0" x2="1" y2="1">
      <stop offset="0" stop-color="#833AB4"/>
      <stop offset="0.42" stop-color="#E1306C"/>
      <stop offset="0.76" stop-color="#F77737"/>
      <stop offset="1" stop-color="#FCAF45"/>
    </linearGradient>
    <linearGradient id="igSoft" x1="0" y1="0" x2="1" y2="1">
      <stop offset="0" stop-color="#FDE7F0"/>
      <stop offset="1" stop-color="#FFF7ED"/>
    </linearGradient>
    <pattern id="gmap" width="56" height="56" patternUnits="userSpaceOnUse">
      <rect width="56" height="56" fill="#F8F9FA"/>
      <path d="M0 22H56M22 0V56" stroke="#E8EAED" stroke-width="1"/>
      <path d="M-8 48H64" stroke="#FFFFFF" stroke-width="5" stroke-linecap="round"/>
      <path d="M48 -8V64" stroke="#FFFFFF" stroke-width="5" stroke-linecap="round"/>
    </pattern>
    <filter id="shadow" x="-35%" y="-20%" width="170%" height="150%">
      <feDropShadow dx="0" dy="26" stdDeviation="22" flood-color="#0F1419" flood-opacity="0.18"/>
    </filter>
    <filter id="card" x="-20%" y="-20%" width="140%" height="150%">
      <feDropShadow dx="0" dy="10" stdDeviation="12" flood-color="#0F1419" flood-opacity="0.10"/>
    </filter>
    <style>
      .boardTitle { font: 800 34px Outfit, Arial, sans-serif; fill: #0F1419; }
      .boardSub { font: 700 16px Outfit, Arial, sans-serif; fill: #536471; }
      .label { font: 800 18px Outfit, Arial, sans-serif; fill: #0F1419; }
      .screenTitle { font: 800 25px Outfit, Arial, sans-serif; fill: #0F1419; }
      .h2 { font: 800 18px Outfit, Arial, sans-serif; fill: #0F1419; }
      .body { font: 700 14px Outfit, Arial, sans-serif; fill: #536471; }
      .tiny { font: 800 11px Outfit, Arial, sans-serif; fill: #657786; }
      .pink { fill: #E1306C; }
      .blue { fill: #1A73E8; }
      .green { fill: #34A853; }
      .white { fill: #FFFFFF; }
      .nav { font: 800 11px Outfit, Arial, sans-serif; fill: #657786; }
      .navOn { font: 800 11px Outfit, Arial, sans-serif; fill: #0F1419; }
    </style>
    <symbol id="icon-map" viewBox="0 0 24 24">
      <path d="M4 18.5L8.5 5.5L15.5 8.5L20 5.5L16 18.5L9 15.5L4 18.5Z" stroke="currentColor" stroke-width="2.2" stroke-linecap="round" stroke-linejoin="round"/>
      <path d="M8.5 5.5L9 15.5M15.5 8.5L16 18.5" stroke="currentColor" stroke-width="2.2" stroke-linecap="round"/>
    </symbol>
    <symbol id="icon-spark" viewBox="0 0 24 24">
      <path d="M12 3L14.3 8.8L20.5 9L15.7 12.9L17.4 19L12 15.6L6.6 19L8.3 12.9L3.5 9L9.7 8.8L12 3Z" stroke="currentColor" stroke-width="2.2" stroke-linecap="round" stroke-linejoin="round"/>
    </symbol>
    <symbol id="icon-plus" viewBox="0 0 24 24">
      <path d="M12 5V19M5 12H19" stroke="currentColor" stroke-width="2.4" stroke-linecap="round"/>
    </symbol>
    <symbol id="icon-bookmark" viewBox="0 0 24 24">
      <path d="M6.5 4.5H17.5V20L12 16.3L6.5 20V4.5Z" stroke="currentColor" stroke-width="2.2" stroke-linejoin="round"/>
    </symbol>
    <symbol id="icon-user" viewBox="0 0 24 24">
      <circle cx="12" cy="8" r="4" stroke="currentColor" stroke-width="2.2"/>
      <path d="M4.5 20C5.6 15.8 8.3 14 12 14C15.7 14 18.4 15.8 19.5 20" stroke="currentColor" stroke-width="2.2" stroke-linecap="round"/>
    </symbol>
    <symbol id="icon-filter" viewBox="0 0 24 24">
      <path d="M4 7H20M7 12H17M10 17H14" stroke="currentColor" stroke-width="2.4" stroke-linecap="round"/>
    </symbol>
    <symbol id="icon-back" viewBox="0 0 24 24">
      <path d="M15 5L8 12L15 19" stroke="currentColor" stroke-width="2.6" stroke-linecap="round" stroke-linejoin="round"/>
    </symbol>
    <symbol id="icon-close" viewBox="0 0 24 24">
      <path d="M7 7L17 17M17 7L7 17" stroke="currentColor" stroke-width="2.4" stroke-linecap="round"/>
    </symbol>
    <symbol id="icon-more" viewBox="0 0 24 24">
      <circle cx="6" cy="12" r="1.8" fill="currentColor"/><circle cx="12" cy="12" r="1.8" fill="currentColor"/><circle cx="18" cy="12" r="1.8" fill="currentColor"/>
    </symbol>
    <symbol id="icon-heart" viewBox="0 0 24 24">
      <path d="M12 20.2C7.6 16.6 5 13.9 5 10.3C5 7.9 6.7 6.2 8.9 6.2C10.2 6.2 11.3 6.9 12 8C12.7 6.9 13.8 6.2 15.1 6.2C17.3 6.2 19 7.9 19 10.3C19 13.9 16.4 16.6 12 20.2Z" stroke="currentColor" stroke-width="2.2" stroke-linejoin="round"/>
    </symbol>
    <symbol id="icon-play" viewBox="0 0 24 24">
      <path d="M9 6.5L18 12L9 17.5V6.5Z" fill="currentColor"/>
    </symbol>
    <symbol id="icon-report" viewBox="0 0 24 24">
      <path d="M12 7V13M12 17H12.01M5 20H19L12 4L5 20Z" stroke="currentColor" stroke-width="2.2" stroke-linejoin="round"/>
    </symbol>
  </defs>

  <rect width="1810" height="3840" fill="#F8F9FA"/>
  <text x="50" y="64" class="boardTitle">Yorimo Full Screen Redesign</text>
  <text x="50" y="94" class="boardSub">Instagram-inspired gradient accents + X-like monochrome UI + customized Google Maps base. Includes photo, reel/short video, story, and review surfaces.</text>

  <!-- Helpers are copied per screen for Penpot import/editability. -->

  <!-- 1 Login -->
  <g transform="translate(50 150)">
    <text class="label" x="0" y="-18">01 Login</text>
    <rect width="390" height="844" rx="38" fill="#0F1419" filter="url(#shadow)"/>
    <rect x="10" y="10" width="370" height="824" rx="30" fill="#FFFFFF"/>
    <circle cx="195" cy="162" r="56" fill="url(#ig)"/>
    <path d="M163 177C174 140 198 198 213 157" stroke="white" stroke-width="8" stroke-linecap="round"/>
    <text x="92" y="264" class="screenTitle">Yorimo</text>
    <text x="92" y="294" class="body">帰り道の寄り道を、地図と投稿で見つける。</text>
    <rect x="34" y="354" width="322" height="56" rx="16" fill="#F8F9FA" stroke="#EFF3F4"/>
    <text x="52" y="387" class="body">demo@yorimo.local</text>
    <rect x="34" y="424" width="322" height="56" rx="16" fill="#F8F9FA" stroke="#EFF3F4"/>
    <text x="52" y="457" class="body">password123</text>
    <rect x="34" y="500" width="322" height="50" rx="16" fill="url(#ig)"/>
    <text x="153" y="532" font-family="Outfit, Arial" font-size="15" font-weight="800" fill="white">ログイン</text>
    <rect x="34" y="566" width="322" height="50" rx="16" fill="#0F1419"/>
    <text x="136" y="598" font-family="Outfit, Arial" font-size="15" font-weight="800" fill="white">新規登録へ</text>
    <text x="72" y="664" class="tiny">位置情報はおすすめ生成のためだけに使います</text>
  </g>

  <!-- 2 Register -->
  <g transform="translate(480 150)">
    <text class="label" x="0" y="-18">02 Register / Profile Seed</text>
    <rect width="390" height="844" rx="38" fill="#0F1419" filter="url(#shadow)"/>
    <rect x="10" y="10" width="370" height="824" rx="30" fill="#FFFFFF"/>
    <text x="34" y="76" class="screenTitle">はじめる</text>
    <text x="34" y="106" class="body">おすすめ精度に必要な初期設定。</text>
    <rect x="34" y="142" width="322" height="54" rx="16" fill="#F8F9FA" stroke="#EFF3F4"/>
    <text x="52" y="175" class="body">名前</text>
    <rect x="34" y="210" width="322" height="54" rx="16" fill="#F8F9FA" stroke="#EFF3F4"/>
    <text x="52" y="243" class="body">メールアドレス</text>
    <text x="34" y="306" class="h2">よく使うルート</text>
    <rect x="34" y="328" width="150" height="50" rx="15" fill="#F8F9FA" stroke="#EFF3F4"/>
    <text x="52" y="359" class="body">家の最寄り</text>
    <rect x="206" y="328" width="150" height="50" rx="15" fill="#F8F9FA" stroke="#EFF3F4"/>
    <text x="224" y="359" class="body">学校/職場</text>
    <text x="34" y="430" class="h2">興味タグ</text>
    <rect x="34" y="454" width="78" height="34" rx="17" fill="#FDE7F0" stroke="#FBCFE8"/>
    <text x="52" y="476" class="tiny" fill="#BE185D">カフェ</text>
    <rect x="120" y="454" width="86" height="34" rx="17" fill="#FDE7F0" stroke="#FBCFE8"/>
    <text x="138" y="476" class="tiny" fill="#BE185D">スイーツ</text>
    <rect x="214" y="454" width="68" height="34" rx="17" fill="#F8F9FA" stroke="#EFF3F4"/>
    <text x="232" y="476" class="tiny">古着</text>
    <rect x="34" y="512" width="322" height="70" rx="18" fill="#F8F9FA" stroke="#EFF3F4"/>
    <text x="52" y="540" class="tiny">デフォルト予算</text>
    <text x="52" y="568" class="h2">0円 - 1500円</text>
    <rect x="34" y="664" width="322" height="50" rx="16" fill="url(#ig)"/>
    <text x="150" y="696" font-family="Outfit, Arial" font-size="15" font-weight="800" fill="white">登録する</text>
  </g>

  <!-- 3 Home Map -->
  <g transform="translate(910 150)">
    <text class="label" x="0" y="-18">03 Home Map</text>
    <rect width="390" height="844" rx="38" fill="#0F1419" filter="url(#shadow)"/>
    <rect x="10" y="10" width="370" height="824" rx="30" fill="url(#gmap)"/>
    <path d="M42 214C136 158 184 276 314 196" stroke="#FFFFFF" stroke-width="10" stroke-linecap="round"/>
    <path d="M70 538C168 464 218 584 334 500" stroke="#FFFFFF" stroke-width="10" stroke-linecap="round"/>
    <ellipse cx="80" cy="640" rx="58" ry="38" fill="#E6F4EA"/>
    <path d="M74 434C130 326 244 380 286 272" stroke="#1A73E8" stroke-width="6" stroke-linecap="round"/>
    <circle cx="74" cy="434" r="18" fill="#1A73E8" stroke="white" stroke-width="4"/>
    <circle cx="286" cy="272" r="22" fill="url(#ig)" stroke="white" stroke-width="4"/>
    <text x="277" y="278" font-family="Outfit, Arial" font-size="13" font-weight="900" fill="white">92</text>
    <rect x="26" y="48" width="338" height="58" rx="18" fill="white" stroke="#EFF3F4" filter="url(#card)"/>
    <text x="84" y="74" class="h2">学校帰りに寄り道</text>
    <text x="84" y="94" class="body">新宿駅まで / 45分 / 1500円以内</text>
    <circle cx="56" cy="77" r="20" fill="#E8F0FE"/>
    <rect x="318" y="55" width="38" height="44" rx="13" fill="#0F1419"/>
    <use href="#icon-filter" x="325" y="65" width="24" height="24" color="white"/>
    <rect x="26" y="122" width="76" height="34" rx="17" fill="#FDE7F0" stroke="#FBCFE8"/>
    <text x="42" y="144" class="tiny" fill="#BE185D">甘いもの</text>
    <rect x="110" y="122" width="58" height="34" rx="17" fill="white" stroke="#EFF3F4"/>
    <text x="126" y="144" class="tiny">静か</text>
    <rect x="10" y="530" width="370" height="238" rx="24" fill="white" filter="url(#card)"/>
    <rect x="171" y="544" width="48" height="5" rx="3" fill="#E8EAED"/>
    <text x="26" y="580" class="pink" font-family="Outfit, Arial" font-size="13" font-weight="900">いま一番ちょうどいい</text>
    <text x="26" y="612" class="screenTitle">mado cafe</text>
    <text x="26" y="638" class="body">徒歩8分 / 35分 / 900円目安</text>
    <rect x="26" y="660" width="104" height="28" rx="14" fill="#F8F9FA"/>
    <text x="40" y="679" class="tiny">ルートから近い</text>
    <rect x="138" y="660" width="86" height="28" rx="14" fill="#F8F9FA"/>
    <text x="152" y="679" class="tiny">投稿が多い</text>
    <rect x="26" y="710" width="224" height="44" rx="14" fill="url(#ig)"/>
    <text x="99" y="738" font-family="Outfit, Arial" font-size="15" font-weight="900" fill="white">ここに寄る</text>
    <rect x="262" y="710" width="44" height="44" rx="14" fill="white" stroke="#EFF3F4"/>
    <use href="#icon-bookmark" x="272" y="720" width="24" height="24" color="#0F1419"/>
    <rect x="320" y="710" width="44" height="44" rx="14" fill="white" stroke="#EFF3F4"/>
    <use href="#icon-close" x="330" y="720" width="24" height="24" color="#0F1419"/>
    <rect x="10" y="770" width="370" height="64" fill="white" stroke="#EFF3F4"/>
    <use href="#icon-map" x="42" y="784" width="18" height="18" color="#E1306C"/><use href="#icon-spark" x="136" y="784" width="18" height="18" color="#657786"/><use href="#icon-plus" x="210" y="784" width="18" height="18" color="#657786"/><use href="#icon-bookmark" x="278" y="784" width="18" height="18" color="#657786"/><use href="#icon-user" x="336" y="784" width="18" height="18" color="#657786"/>
    <text x="44" y="824" class="navOn">地図</text><text x="112" y="824" class="nav">おすすめ</text><text x="204" y="824" class="nav">投稿</text><text x="270" y="824" class="nav">保存</text><text x="330" y="824" class="nav">自分</text>
  </g>

  <!-- 4 Recommendations -->
  <g transform="translate(1340 150)">
    <text class="label" x="0" y="-18">04 Recommendations</text>
    <rect width="390" height="844" rx="38" fill="#0F1419" filter="url(#shadow)"/>
    <rect x="10" y="10" width="370" height="824" rx="30" fill="#FFFFFF"/>
    <text x="34" y="74" class="pink" font-family="Outfit, Arial" font-size="13" font-weight="900">45分で行ける</text>
    <text x="34" y="108" class="screenTitle">おすすめ</text>
    <rect x="34" y="130" width="76" height="34" rx="17" fill="#FDE7F0" stroke="#FBCFE8"/>
    <text x="50" y="152" class="tiny" fill="#BE185D">甘いもの</text>
    <rect x="118" y="130" width="92" height="34" rx="17" fill="white" stroke="#EFF3F4"/>
    <text x="134" y="152" class="tiny">1500円以内</text>
    <rect x="34" y="190" width="322" height="148" rx="22" fill="white" stroke="#EFF3F4" filter="url(#card)"/>
    <rect x="52" y="210" width="34" height="34" rx="12" fill="#E8F0FE"/><text x="66" y="233" class="body" fill="#1A73E8">1</text>
    <text x="102" y="226" class="h2">mado cafe</text><text x="102" y="248" class="body">徒歩8分 / 35分 / 900円</text>
    <rect x="282" y="208" width="56" height="56" rx="18" fill="url(#ig)"/><text x="296" y="242" font-family="Outfit, Arial" font-size="22" font-weight="900" fill="white">92</text>
    <rect x="52" y="286" width="108" height="28" rx="14" fill="#F8F9FA"/><text x="66" y="305" class="tiny">現在地から近い</text>
    <rect x="168" y="286" width="116" height="28" rx="14" fill="#F8F9FA"/><text x="182" y="305" class="tiny">レビュー評価高い</text>
    <rect x="52" y="318" width="286" height="7" rx="4" fill="#EFF3F4"/><rect x="52" y="318" width="263" height="7" rx="4" fill="url(#ig)"/>
    <rect x="34" y="360" width="322" height="126" rx="22" fill="white" stroke="#EFF3F4"/>
    <text x="52" y="396" class="h2">paper park</text><text x="52" y="418" class="body">徒歩12分 / 40分 / 1200円</text>
    <rect x="282" y="382" width="56" height="56" rx="18" fill="#0F1419"/><text x="296" y="416" font-family="Outfit, Arial" font-size="22" font-weight="900" fill="white">84</text>
    <rect x="34" y="508" width="322" height="126" rx="22" fill="white" stroke="#EFF3F4"/>
    <text x="52" y="544" class="h2">north sauna</text><text x="52" y="566" class="body">電車1駅 / 60分 / 1500円</text>
    <rect x="282" y="530" width="56" height="56" rx="18" fill="#34A853"/><text x="296" y="564" font-family="Outfit, Arial" font-size="22" font-weight="900" fill="white">78</text>
    <rect x="10" y="770" width="370" height="64" fill="white" stroke="#EFF3F4"/>
    <use href="#icon-map" x="42" y="784" width="18" height="18" color="#657786"/><use href="#icon-spark" x="136" y="784" width="18" height="18" color="#E1306C"/><use href="#icon-plus" x="210" y="784" width="18" height="18" color="#657786"/><use href="#icon-bookmark" x="278" y="784" width="18" height="18" color="#657786"/><use href="#icon-user" x="336" y="784" width="18" height="18" color="#657786"/>
    <text x="44" y="824" class="nav">地図</text><text x="112" y="824" class="navOn">おすすめ</text><text x="204" y="824" class="nav">投稿</text><text x="270" y="824" class="nav">保存</text><text x="330" y="824" class="nav">自分</text>
  </g>

  <!-- 5 Spot Detail -->
  <g transform="translate(50 1070)">
    <text class="label" x="0" y="-18">05 Spot Detail</text>
    <rect width="390" height="844" rx="38" fill="#0F1419" filter="url(#shadow)"/>
    <rect x="10" y="10" width="370" height="824" rx="30" fill="#FFFFFF"/>
    <rect x="10" y="10" width="370" height="250" rx="30" fill="url(#igSoft)"/>
    <circle cx="66" cy="70" r="22" fill="white"/><use href="#icon-back" x="54" y="58" width="24" height="24" color="#0F1419"/>
    <rect x="34" y="158" width="322" height="84" rx="22" fill="white" filter="url(#card)"/>
    <text x="52" y="186" class="pink" font-family="Outfit, Arial" font-size="13" font-weight="900">カフェ / 新宿三丁目</text>
    <text x="52" y="216" class="screenTitle">mado cafe</text>
    <text x="52" y="236" class="body">帰り道にちょうどいい窓際カフェ</text>
    <rect x="34" y="290" width="150" height="74" rx="18" fill="#FFFFFF" stroke="#EFF3F4"/><text x="52" y="318" class="tiny">滞在目安</text><text x="52" y="348" class="h2">35分</text>
    <rect x="206" y="290" width="150" height="74" rx="18" fill="#FFFFFF" stroke="#EFF3F4"/><text x="224" y="318" class="tiny">予算</text><text x="224" y="348" class="h2">900円</text>
    <rect x="34" y="382" width="322" height="48" rx="16" fill="url(#ig)"/><text x="154" y="412" font-family="Outfit, Arial" font-size="15" font-weight="900" fill="white">保存する</text>
    <text x="34" y="482" class="h2">みんなのレビュー</text>
    <rect x="34" y="504" width="322" height="74" rx="18" fill="#FFFFFF" stroke="#EFF3F4"/>
    <circle cx="70" cy="541" r="24" fill="#FDE7F0"/><text x="110" y="536" class="h2">帰り道にちょうどよかった</text><text x="110" y="558" class="body">5分前 / public / 甘いもの</text>
    <rect x="34" y="596" width="322" height="74" rx="18" fill="#FFFFFF" stroke="#EFF3F4"/>
    <circle cx="70" cy="633" r="24" fill="#E8F0FE"/><text x="110" y="628" class="h2">席が空いていて作業しやすい</text><text x="110" y="650" class="body">昨日 / review / 静か</text>
    <rect x="10" y="770" width="370" height="64" fill="white" stroke="#EFF3F4"/>
    <use href="#icon-map" x="42" y="784" width="18" height="18" color="#E1306C"/><use href="#icon-spark" x="136" y="784" width="18" height="18" color="#657786"/><use href="#icon-plus" x="210" y="784" width="18" height="18" color="#657786"/><use href="#icon-bookmark" x="278" y="784" width="18" height="18" color="#657786"/><use href="#icon-user" x="336" y="784" width="18" height="18" color="#657786"/>
    <text x="44" y="824" class="navOn">地図</text><text x="112" y="824" class="nav">おすすめ</text><text x="204" y="824" class="nav">投稿</text><text x="270" y="824" class="nav">保存</text><text x="330" y="824" class="nav">自分</text>
  </g>

  <!-- 6 Create Post -->
  <g transform="translate(480 1070)">
    <text class="label" x="0" y="-18">06 Create Post</text>
    <rect width="390" height="844" rx="38" fill="#0F1419" filter="url(#shadow)"/>
    <rect x="10" y="10" width="370" height="824" rx="30" fill="#FFFFFF"/>
    <text x="34" y="74" class="pink" font-family="Outfit, Arial" font-size="13" font-weight="900">写真・リール・ストーリー・レビュー</text>
    <text x="34" y="108" class="screenTitle">記録する</text>
    <rect x="34" y="140" width="322" height="58" rx="18" fill="#F8F9FA" stroke="#EFF3F4"/><text x="52" y="164" class="tiny">スポット</text><text x="52" y="186" class="h2">mado cafe</text>
    <rect x="34" y="218" width="322" height="116" rx="18" fill="#FFFFFF" stroke="#EFF3F4"/>
    <text x="52" y="244" class="tiny">投稿タイプ</text>
    <rect x="52" y="256" width="132" height="34" rx="17" fill="#FDE7F0"/><text x="96" y="278" class="tiny" fill="#BE185D">写真</text>
    <rect x="194" y="256" width="132" height="34" rx="17" fill="#F8F9FA"/><text x="224" y="278" class="tiny">リール</text>
    <rect x="52" y="296" width="132" height="28" rx="14" fill="#F8F9FA"/><text x="90" y="315" class="tiny">ストーリー</text>
    <rect x="194" y="296" width="132" height="28" rx="14" fill="#F8F9FA"/><text x="230" y="315" class="tiny">レビュー</text>
    <rect x="34" y="354" width="322" height="98" rx="20" fill="#F8F9FA" stroke="#EFF3F4"/>
    <text x="108" y="410" class="body">写真または動画を追加</text>
    <rect x="34" y="470" width="322" height="72" rx="18" fill="#FFFFFF" stroke="#EFF3F4"/><text x="52" y="496" class="tiny">ひとこと</text><text x="52" y="524" class="h2">帰り道にちょうどよかった</text>
    <rect x="34" y="560" width="322" height="58" rx="18" fill="#FFFFFF" stroke="#EFF3F4"/><text x="52" y="586" class="tiny">公開範囲</text><text x="52" y="608" class="h2">public</text>
    <rect x="34" y="640" width="322" height="44" rx="16" fill="#0F1419"/><text x="154" y="669" font-family="Outfit, Arial" font-size="15" font-weight="900" fill="white">下書き保存</text>
    <rect x="34" y="696" width="322" height="44" rx="16" fill="url(#ig)"/><text x="160" y="725" font-family="Outfit, Arial" font-size="15" font-weight="900" fill="white">投稿する</text>
    <rect x="10" y="770" width="370" height="64" fill="white" stroke="#EFF3F4"/>
    <use href="#icon-map" x="42" y="784" width="18" height="18" color="#657786"/><use href="#icon-spark" x="136" y="784" width="18" height="18" color="#657786"/><use href="#icon-plus" x="210" y="784" width="18" height="18" color="#E1306C"/><use href="#icon-bookmark" x="278" y="784" width="18" height="18" color="#657786"/><use href="#icon-user" x="336" y="784" width="18" height="18" color="#657786"/>
    <text x="44" y="824" class="nav">地図</text><text x="112" y="824" class="nav">おすすめ</text><text x="204" y="824" class="navOn">投稿</text><text x="270" y="824" class="nav">保存</text><text x="330" y="824" class="nav">自分</text>
  </g>

  <!-- 7 Feed -->
  <g transform="translate(910 1070)">
    <text class="label" x="0" y="-18">07 Feed</text>
    <rect width="390" height="844" rx="38" fill="#0F1419" filter="url(#shadow)"/>
    <rect x="10" y="10" width="370" height="824" rx="30" fill="#FFFFFF"/>
    <text x="34" y="76" class="screenTitle">フィード</text>
    <rect x="34" y="112" width="322" height="168" rx="22" fill="#FFFFFF" stroke="#EFF3F4" filter="url(#card)"/>
    <circle cx="64" cy="146" r="20" fill="#FDE7F0"/><text x="96" y="142" class="h2">mado cafe</text><text x="96" y="164" class="body">投稿者: Haru / 5分前</text>
    <rect x="54" y="184" width="120" height="72" rx="16" fill="url(#igSoft)"/><text x="194" y="210" class="h2">帰り道にちょうどいい</text><text x="194" y="234" class="body">甘いもの / 900円</text>
    <use href="#icon-more" x="314" y="132" width="24" height="24" color="#0F1419"/>
    <rect x="34" y="300" width="322" height="168" rx="22" fill="#FFFFFF" stroke="#EFF3F4"/>
    <circle cx="64" cy="334" r="20" fill="#E8F0FE"/><text x="96" y="330" class="h2">paper park</text><text x="96" y="352" class="body">投稿者: Mina / 昨日</text>
    <rect x="54" y="372" width="120" height="72" rx="16" fill="#E8F0FE"/><text x="194" y="398" class="h2">作業しやすい</text><text x="194" y="422" class="body">静か / 1200円</text>
    <text x="34" y="528" class="tiny">通報・ブロックは各投稿のメニューから</text>
    <rect x="10" y="770" width="370" height="64" fill="white" stroke="#EFF3F4"/>
    <use href="#icon-map" x="42" y="784" width="18" height="18" color="#657786"/><use href="#icon-spark" x="136" y="784" width="18" height="18" color="#657786"/><use href="#icon-plus" x="210" y="784" width="18" height="18" color="#E1306C"/><use href="#icon-bookmark" x="278" y="784" width="18" height="18" color="#657786"/><use href="#icon-user" x="336" y="784" width="18" height="18" color="#657786"/>
    <text x="44" y="824" class="nav">地図</text><text x="112" y="824" class="nav">おすすめ</text><text x="204" y="824" class="navOn">投稿</text><text x="270" y="824" class="nav">保存</text><text x="330" y="824" class="nav">自分</text>
  </g>

  <!-- 8 Saved Spots -->
  <g transform="translate(1340 1070)">
    <text class="label" x="0" y="-18">08 Saved Spots</text>
    <rect width="390" height="844" rx="38" fill="#0F1419" filter="url(#shadow)"/>
    <rect x="10" y="10" width="370" height="824" rx="30" fill="#FFFFFF"/>
    <text x="34" y="76" class="screenTitle">保存</text>
    <text x="34" y="106" class="body">あとで寄りたい場所</text>
    <rect x="34" y="140" width="322" height="96" rx="22" fill="#FFFFFF" stroke="#EFF3F4" filter="url(#card)"/>
    <circle cx="76" cy="188" r="28" fill="url(#ig)"/><text x="120" y="182" class="h2">mado cafe</text><text x="120" y="204" class="body">新宿三丁目 / カフェ</text><path d="M298 190L306 198L322 176" stroke="#34A853" stroke-width="4" stroke-linecap="round" stroke-linejoin="round"/>
    <rect x="34" y="254" width="322" height="96" rx="22" fill="#FFFFFF" stroke="#EFF3F4"/>
    <circle cx="76" cy="302" r="28" fill="#E8F0FE"/><text x="120" y="296" class="h2">paper park</text><text x="120" y="318" class="body">代々木 / 作業場所</text>
    <rect x="34" y="374" width="322" height="50" rx="16" fill="#0F1419"/><text x="136" y="406" font-family="Outfit, Arial" font-size="15" font-weight="900" fill="white">地図で見る</text>
    <rect x="10" y="770" width="370" height="64" fill="white" stroke="#EFF3F4"/>
    <use href="#icon-map" x="42" y="784" width="18" height="18" color="#657786"/><use href="#icon-spark" x="136" y="784" width="18" height="18" color="#657786"/><use href="#icon-plus" x="210" y="784" width="18" height="18" color="#657786"/><use href="#icon-bookmark" x="278" y="784" width="18" height="18" color="#E1306C"/><use href="#icon-user" x="336" y="784" width="18" height="18" color="#657786"/>
    <text x="44" y="824" class="nav">地図</text><text x="112" y="824" class="nav">おすすめ</text><text x="204" y="824" class="nav">投稿</text><text x="270" y="824" class="navOn">保存</text><text x="330" y="824" class="nav">自分</text>
  </g>

  <!-- 9 My Routes -->
  <g transform="translate(50 1990)">
    <text class="label" x="0" y="-18">09 My Routes</text>
    <rect width="390" height="844" rx="38" fill="#0F1419" filter="url(#shadow)"/>
    <rect x="10" y="10" width="370" height="824" rx="30" fill="#FFFFFF"/>
    <text x="34" y="76" class="screenTitle">マイルート</text>
    <rect x="34" y="112" width="322" height="180" rx="22" fill="url(#gmap)" stroke="#EFF3F4"/>
    <path d="M76 240C128 150 240 224 306 150" stroke="#1A73E8" stroke-width="5" stroke-linecap="round"/>
    <circle cx="76" cy="240" r="13" fill="#1A73E8" stroke="white" stroke-width="3"/><circle cx="306" cy="150" r="13" fill="#E1306C" stroke="white" stroke-width="3"/>
    <text x="34" y="334" class="h2">学校から新宿まで</text><text x="34" y="358" class="body">渋谷・代々木 経由 / 平日 17:30</text>
    <rect x="34" y="390" width="322" height="54" rx="16" fill="#F8F9FA" stroke="#EFF3F4"/><text x="52" y="424" class="body">出発地を編集</text>
    <rect x="34" y="458" width="322" height="54" rx="16" fill="#F8F9FA" stroke="#EFF3F4"/><text x="52" y="492" class="body">到着地を編集</text>
    <rect x="34" y="560" width="322" height="50" rx="16" fill="url(#ig)"/><text x="136" y="592" font-family="Outfit, Arial" font-size="15" font-weight="900" fill="white">ルートを保存</text>
  </g>

  <!-- 10 Profile -->
  <g transform="translate(480 1990)">
    <text class="label" x="0" y="-18">10 Profile</text>
    <rect width="390" height="844" rx="38" fill="#0F1419" filter="url(#shadow)"/>
    <rect x="10" y="10" width="370" height="824" rx="30" fill="#FFFFFF"/>
    <rect x="34" y="58" width="76" height="76" rx="38" fill="url(#ig)"/>
    <text x="126" y="88" class="screenTitle">Haru</text><text x="126" y="114" class="body">demo@yorimo.local</text>
    <rect x="34" y="166" width="322" height="76" rx="20" fill="#F8F9FA" stroke="#EFF3F4"/><text x="52" y="194" class="tiny">興味</text><text x="52" y="222" class="h2">カフェ / スイーツ / 古着</text>
    <rect x="34" y="260" width="322" height="76" rx="20" fill="#F8F9FA" stroke="#EFF3F4"/><text x="52" y="288" class="tiny">予算</text><text x="52" y="316" class="h2">0円 - 1500円</text>
    <rect x="34" y="354" width="322" height="76" rx="20" fill="#F8F9FA" stroke="#EFF3F4"/><text x="52" y="382" class="tiny">保存スポット</text><text x="52" y="410" class="h2">12件</text>
    <rect x="34" y="480" width="322" height="50" rx="16" fill="#0F1419"/><text x="144" y="512" font-family="Outfit, Arial" font-size="15" font-weight="900" fill="white">編集する</text>
    <rect x="34" y="548" width="322" height="50" rx="16" fill="#FFFFFF" stroke="#EFF3F4"/><text x="136" y="580" class="h2">ログアウト</text>
  </g>

  <!-- 11 Report -->
  <g transform="translate(910 1990)">
    <text class="label" x="0" y="-18">11 Report Content</text>
    <rect width="390" height="844" rx="38" fill="#0F1419" filter="url(#shadow)"/>
    <rect x="10" y="10" width="370" height="824" rx="30" fill="#FFFFFF"/>
    <text x="34" y="76" class="screenTitle">通報する</text>
    <text x="34" y="106" class="body">安全のため、理由を選んでください。</text>
    <rect x="34" y="142" width="322" height="54" rx="16" fill="#F8F9FA" stroke="#EFF3F4"/><text x="52" y="176" class="body">不適切な内容</text>
    <rect x="34" y="210" width="322" height="54" rx="16" fill="#F8F9FA" stroke="#EFF3F4"/><text x="52" y="244" class="body">嫌がらせ</text>
    <rect x="34" y="278" width="322" height="54" rx="16" fill="#F8F9FA" stroke="#EFF3F4"/><text x="52" y="312" class="body">スパム</text>
    <rect x="34" y="346" width="322" height="54" rx="16" fill="#FDE7F0" stroke="#FBCFE8"/><text x="52" y="380" class="body" fill="#BE185D">位置情報のプライバシー</text>
    <rect x="34" y="430" width="322" height="126" rx="18" fill="#FFFFFF" stroke="#EFF3F4"/><text x="52" y="462" class="body">詳細を入力</text>
    <rect x="34" y="614" width="322" height="50" rx="16" fill="#E1306C"/><text x="146" y="646" font-family="Outfit, Arial" font-size="15" font-weight="900" fill="white">通報する</text>
  </g>

  <!-- 12 Block -->
  <g transform="translate(1340 1990)">
    <text class="label" x="0" y="-18">12 Block User</text>
    <rect width="390" height="844" rx="38" fill="#0F1419" filter="url(#shadow)"/>
    <rect x="10" y="10" width="370" height="824" rx="30" fill="#FFFFFF"/>
    <circle cx="195" cy="154" r="52" fill="#FDE7F0"/>
    <text x="34" y="248" class="screenTitle">このユーザーを</text>
    <text x="34" y="282" class="screenTitle">ブロックしますか？</text>
    <text x="34" y="326" class="body">相手の投稿はフィードとおすすめから</text>
    <text x="34" y="348" class="body">除外されます。</text>
    <rect x="34" y="390" width="322" height="56" rx="18" fill="#F8F9FA" stroke="#EFF3F4"/><text x="52" y="425" class="body">Haruから見えなくする</text>
    <rect x="34" y="476" width="322" height="50" rx="16" fill="#E1306C"/><text x="144" y="508" font-family="Outfit, Arial" font-size="15" font-weight="900" fill="white">ブロック</text>
    <rect x="34" y="544" width="322" height="50" rx="16" fill="#FFFFFF" stroke="#EFF3F4"/><text x="158" y="576" class="h2">キャンセル</text>
  </g>

  <!-- 13 Reels / Short Video -->
  <g transform="translate(50 2910)">
    <text class="label" x="0" y="-18">13 Reels / Short Video</text>
    <rect width="390" height="844" rx="38" fill="#0F1419" filter="url(#shadow)"/>
    <rect x="10" y="10" width="370" height="824" rx="30" fill="#0F1419"/>
    <rect x="10" y="10" width="370" height="824" rx="30" fill="url(#ig)" opacity=".24"/>
    <text x="34" y="70" font-family="Outfit, Arial" font-size="25" font-weight="900" fill="white">リール</text>
    <rect x="34" y="104" width="128" height="34" rx="17" fill="white" opacity=".14"/>
    <text x="50" y="126" font-family="Outfit, Arial" font-size="11" font-weight="900" fill="white">新宿三丁目</text>
    <circle cx="195" cy="384" r="52" fill="white" opacity=".18"/>
    <path d="M178 354L226 384L178 414V354Z" fill="white"/>
    <rect x="34" y="622" width="250" height="104" rx="22" fill="#0F1419" opacity=".72"/>
    <text x="54" y="652" font-family="Outfit, Arial" font-size="18" font-weight="900" fill="white">mado cafe</text>
    <text x="54" y="678" font-family="Outfit, Arial" font-size="14" font-weight="700" fill="#E7E9EA">帰り道にちょうどいい窓際席</text>
    <text x="54" y="704" font-family="Outfit, Arial" font-size="13" font-weight="800" fill="#E7E9EA">徒歩8分 / 35分 / 900円</text>
    <circle cx="330" cy="472" r="24" fill="white"/><use href="#icon-heart" x="318" y="460" width="24" height="24" color="#0F1419"/>
    <circle cx="330" cy="536" r="24" fill="white"/><use href="#icon-bookmark" x="318" y="524" width="24" height="24" color="#0F1419"/>
    <circle cx="330" cy="600" r="24" fill="white"/><use href="#icon-more" x="318" y="588" width="24" height="24" color="#0F1419"/>
    <rect x="34" y="744" width="322" height="44" rx="14" fill="white"/>
    <text x="138" y="772" font-family="Outfit, Arial" font-size="15" font-weight="900" fill="#0F1419">スポットを見る</text>
  </g>

  <!-- 14 Story Viewer -->
  <g transform="translate(480 2910)">
    <text class="label" x="0" y="-18">14 Story Viewer</text>
    <rect width="390" height="844" rx="38" fill="#0F1419" filter="url(#shadow)"/>
    <rect x="10" y="10" width="370" height="824" rx="30" fill="#0F1419"/>
    <rect x="28" y="34" width="96" height="4" rx="2" fill="url(#ig)"/>
    <rect x="132" y="34" width="96" height="4" rx="2" fill="white" opacity=".35"/>
    <rect x="236" y="34" width="96" height="4" rx="2" fill="white" opacity=".35"/>
    <circle cx="58" cy="74" r="22" fill="url(#ig)"/>
    <text x="92" y="72" font-family="Outfit, Arial" font-size="15" font-weight="900" fill="white">mado cafe</text>
    <text x="92" y="92" font-family="Outfit, Arial" font-size="12" font-weight="700" fill="#AAB8C2">23時間で消えます</text>
    <use href="#icon-close" x="324" y="64" width="28" height="28" color="white"/>
    <rect x="34" y="154" width="322" height="392" rx="28" fill="url(#igSoft)"/>
    <text x="74" y="356" font-family="Outfit, Arial" font-size="28" font-weight="900" fill="#0F1419">今日の窓際席</text>
    <text x="84" y="392" font-family="Outfit, Arial" font-size="15" font-weight="800" fill="#536471">空いていて作業しやすい</text>
    <rect x="34" y="594" width="322" height="72" rx="22" fill="#FFFFFF"/>
    <text x="54" y="624" class="h2">mado cafe</text>
    <text x="54" y="648" class="body">徒歩8分 / 900円目安</text>
    <rect x="34" y="706" width="218" height="44" rx="14" fill="url(#ig)"/>
    <text x="107" y="734" font-family="Outfit, Arial" font-size="15" font-weight="900" fill="white">ここに寄る</text>
    <rect x="260" y="706" width="44" height="44" rx="14" fill="white"/>
    <use href="#icon-bookmark" x="270" y="716" width="24" height="24" color="#0F1419"/>
    <rect x="312" y="706" width="44" height="44" rx="14" fill="white"/>
    <use href="#icon-more" x="322" y="716" width="24" height="24" color="#0F1419"/>
  </g>
</svg>
